<mxfile host="app.diagrams.net" modified="2022-12-15T01:42:24.813Z" agent="5.0 (Windows NT 10.0; Win64; x64) AppleWebKit/537.36 (KHTML, like Gecko) Chrome/101.0.0.0 Safari/537.36" version="20.6.2" etag="wqqaJT5GPX0xyzJ8C38T" type="github">
  <diagram id="5u85gAowJPoeOtxz74KD" name="第 1 页">
    <mxGraphModel dx="1325" dy="613" grid="1" gridSize="10" guides="1" tooltips="1" connect="1" arrows="1" fold="1" page="1" pageScale="1" pageWidth="827" pageHeight="1169" math="0" shadow="0">
      <root>
        <mxCell id="0" />
        <mxCell id="1" parent="0" />
        <mxCell id="lB2y1da5tnhayKEPhziA-1" value="" style="edgeStyle=orthogonalEdgeStyle;rounded=0;orthogonalLoop=1;jettySize=auto;html=1;" edge="1" parent="1" source="lB2y1da5tnhayKEPhziA-4" target="lB2y1da5tnhayKEPhziA-13">
          <mxGeometry relative="1" as="geometry" />
        </mxCell>
        <mxCell id="lB2y1da5tnhayKEPhziA-2" value="失败" style="edgeLabel;html=1;align=center;verticalAlign=middle;resizable=0;points=[];" vertex="1" connectable="0" parent="lB2y1da5tnhayKEPhziA-1">
          <mxGeometry x="0.1873" relative="1" as="geometry">
            <mxPoint as="offset" />
          </mxGeometry>
        </mxCell>
        <mxCell id="lB2y1da5tnhayKEPhziA-43" value="成功" style="edgeStyle=orthogonalEdgeStyle;rounded=0;orthogonalLoop=1;jettySize=auto;html=1;entryX=0.5;entryY=0;entryDx=0;entryDy=0;" edge="1" parent="1" source="lB2y1da5tnhayKEPhziA-4" target="lB2y1da5tnhayKEPhziA-17">
          <mxGeometry relative="1" as="geometry" />
        </mxCell>
        <mxCell id="lB2y1da5tnhayKEPhziA-4" value="" style="verticalLabelPosition=bottom;verticalAlign=top;html=1;shape=card;whiteSpace=wrap;size=20;arcSize=12;" vertex="1" parent="1">
          <mxGeometry x="55" y="140" width="330" height="280" as="geometry" />
        </mxCell>
        <mxCell id="lB2y1da5tnhayKEPhziA-5" value="" style="edgeStyle=orthogonalEdgeStyle;rounded=0;orthogonalLoop=1;jettySize=auto;html=1;" edge="1" parent="1" source="lB2y1da5tnhayKEPhziA-6" target="lB2y1da5tnhayKEPhziA-8">
          <mxGeometry relative="1" as="geometry" />
        </mxCell>
        <mxCell id="lB2y1da5tnhayKEPhziA-6" value="开始" style="strokeWidth=2;html=1;shape=mxgraph.flowchart.start_1;whiteSpace=wrap;" vertex="1" parent="1">
          <mxGeometry x="170" y="50" width="100" height="60" as="geometry" />
        </mxCell>
        <mxCell id="lB2y1da5tnhayKEPhziA-7" value="" style="edgeStyle=orthogonalEdgeStyle;rounded=0;orthogonalLoop=1;jettySize=auto;html=1;" edge="1" parent="1" source="lB2y1da5tnhayKEPhziA-8" target="lB2y1da5tnhayKEPhziA-10">
          <mxGeometry relative="1" as="geometry" />
        </mxCell>
        <mxCell id="lB2y1da5tnhayKEPhziA-8" value="加载落标配置" style="shape=parallelogram;html=1;strokeWidth=2;perimeter=parallelogramPerimeter;whiteSpace=wrap;rounded=1;arcSize=12;size=0.23;" vertex="1" parent="1">
          <mxGeometry x="130" y="160" width="180" height="60" as="geometry" />
        </mxCell>
        <mxCell id="lB2y1da5tnhayKEPhziA-9" value="" style="edgeStyle=orthogonalEdgeStyle;rounded=0;orthogonalLoop=1;jettySize=auto;html=1;" edge="1" parent="1" source="lB2y1da5tnhayKEPhziA-10" target="lB2y1da5tnhayKEPhziA-11">
          <mxGeometry relative="1" as="geometry" />
        </mxCell>
        <mxCell id="lB2y1da5tnhayKEPhziA-10" value="一次性批量加载有关的元数据信息" style="shape=parallelogram;html=1;strokeWidth=2;perimeter=parallelogramPerimeter;whiteSpace=wrap;rounded=1;arcSize=12;size=0.23;" vertex="1" parent="1">
          <mxGeometry x="120" y="255" width="200" height="50" as="geometry" />
        </mxCell>
        <mxCell id="lB2y1da5tnhayKEPhziA-11" value="一次性批量加载有关的数据标准信息" style="shape=parallelogram;html=1;strokeWidth=2;perimeter=parallelogramPerimeter;whiteSpace=wrap;rounded=1;arcSize=12;size=0.23;" vertex="1" parent="1">
          <mxGeometry x="115" y="350" width="210" height="50" as="geometry" />
        </mxCell>
        <mxCell id="lB2y1da5tnhayKEPhziA-12" value="数据准备" style="text;html=1;resizable=0;autosize=1;align=center;verticalAlign=middle;points=[];fillColor=none;strokeColor=none;rounded=0;" vertex="1" parent="1">
          <mxGeometry x="60" y="150" width="70" height="30" as="geometry" />
        </mxCell>
        <mxCell id="lB2y1da5tnhayKEPhziA-13" value="结束" style="strokeWidth=2;html=1;shape=mxgraph.flowchart.terminator;whiteSpace=wrap;" vertex="1" parent="1">
          <mxGeometry x="750" y="250" width="100" height="60" as="geometry" />
        </mxCell>
        <mxCell id="lB2y1da5tnhayKEPhziA-16" value="" style="edgeStyle=orthogonalEdgeStyle;rounded=0;orthogonalLoop=1;jettySize=auto;html=1;" edge="1" parent="1" source="lB2y1da5tnhayKEPhziA-17" target="lB2y1da5tnhayKEPhziA-39">
          <mxGeometry relative="1" as="geometry" />
        </mxCell>
        <mxCell id="lB2y1da5tnhayKEPhziA-17" value="组装参数" style="rounded=1;whiteSpace=wrap;html=1;absoluteArcSize=1;arcSize=14;strokeWidth=2;" vertex="1" parent="1">
          <mxGeometry x="155" y="480" width="130" height="40" as="geometry" />
        </mxCell>
        <mxCell id="lB2y1da5tnhayKEPhziA-20" value="" style="edgeStyle=orthogonalEdgeStyle;rounded=0;orthogonalLoop=1;jettySize=auto;html=1;" edge="1" parent="1" source="lB2y1da5tnhayKEPhziA-21" target="lB2y1da5tnhayKEPhziA-23">
          <mxGeometry relative="1" as="geometry" />
        </mxCell>
        <mxCell id="lB2y1da5tnhayKEPhziA-21" value="jdbc 流式读取元数据内容" style="rounded=1;whiteSpace=wrap;html=1;absoluteArcSize=1;arcSize=14;strokeWidth=2;" vertex="1" parent="1">
          <mxGeometry x="380" y="600.25" width="90" height="50" as="geometry" />
        </mxCell>
        <mxCell id="lB2y1da5tnhayKEPhziA-22" value="" style="edgeStyle=orthogonalEdgeStyle;rounded=0;orthogonalLoop=1;jettySize=auto;html=1;" edge="1" parent="1" source="lB2y1da5tnhayKEPhziA-23" target="lB2y1da5tnhayKEPhziA-25">
          <mxGeometry relative="1" as="geometry" />
        </mxCell>
        <mxCell id="lB2y1da5tnhayKEPhziA-23" value="逐条对比数据内容与元数据标准配置" style="rounded=1;whiteSpace=wrap;html=1;absoluteArcSize=1;arcSize=14;strokeWidth=2;" vertex="1" parent="1">
          <mxGeometry x="500" y="603.5" width="100" height="45" as="geometry" />
        </mxCell>
        <mxCell id="lB2y1da5tnhayKEPhziA-24" value="" style="edgeStyle=orthogonalEdgeStyle;rounded=0;orthogonalLoop=1;jettySize=auto;html=1;" edge="1" parent="1" source="lB2y1da5tnhayKEPhziA-25" target="lB2y1da5tnhayKEPhziA-35">
          <mxGeometry relative="1" as="geometry" />
        </mxCell>
        <mxCell id="lB2y1da5tnhayKEPhziA-25" value="对比结果存入内存实体集" style="rounded=1;whiteSpace=wrap;html=1;absoluteArcSize=1;arcSize=14;strokeWidth=2;" vertex="1" parent="1">
          <mxGeometry x="630" y="601.25" width="100" height="47.5" as="geometry" />
        </mxCell>
        <mxCell id="lB2y1da5tnhayKEPhziA-29" value="数据库" style="strokeWidth=2;html=1;shape=mxgraph.flowchart.database;whiteSpace=wrap;" vertex="1" parent="1">
          <mxGeometry x="930" y="595" width="60" height="60" as="geometry" />
        </mxCell>
        <mxCell id="lB2y1da5tnhayKEPhziA-30" value="" style="edgeStyle=orthogonalEdgeStyle;rounded=0;orthogonalLoop=1;jettySize=auto;html=1;" edge="1" parent="1" source="lB2y1da5tnhayKEPhziA-31" target="lB2y1da5tnhayKEPhziA-33">
          <mxGeometry relative="1" as="geometry" />
        </mxCell>
        <mxCell id="lB2y1da5tnhayKEPhziA-31" value="统计正常审计的落标数" style="verticalLabelPosition=bottom;verticalAlign=top;html=1;shape=mxgraph.flowchart.or;" vertex="1" parent="1">
          <mxGeometry x="765" y="430" width="70" height="70" as="geometry" />
        </mxCell>
        <mxCell id="lB2y1da5tnhayKEPhziA-32" value="" style="edgeStyle=orthogonalEdgeStyle;rounded=0;orthogonalLoop=1;jettySize=auto;html=1;" edge="1" parent="1" source="lB2y1da5tnhayKEPhziA-33" target="lB2y1da5tnhayKEPhziA-13">
          <mxGeometry relative="1" as="geometry" />
        </mxCell>
        <mxCell id="lB2y1da5tnhayKEPhziA-33" value="将统计结果写入日志" style="rounded=1;whiteSpace=wrap;html=1;absoluteArcSize=1;arcSize=14;strokeWidth=2;" vertex="1" parent="1">
          <mxGeometry x="750" y="350" width="100" height="40" as="geometry" />
        </mxCell>
        <mxCell id="lB2y1da5tnhayKEPhziA-48" style="edgeStyle=orthogonalEdgeStyle;rounded=0;orthogonalLoop=1;jettySize=auto;html=1;entryX=0.5;entryY=1;entryDx=0;entryDy=0;entryPerimeter=0;" edge="1" parent="1" source="lB2y1da5tnhayKEPhziA-35" target="lB2y1da5tnhayKEPhziA-31">
          <mxGeometry relative="1" as="geometry" />
        </mxCell>
        <mxCell id="lB2y1da5tnhayKEPhziA-49" value="" style="edgeStyle=orthogonalEdgeStyle;rounded=0;orthogonalLoop=1;jettySize=auto;html=1;" edge="1" parent="1" source="lB2y1da5tnhayKEPhziA-35" target="lB2y1da5tnhayKEPhziA-29">
          <mxGeometry relative="1" as="geometry" />
        </mxCell>
        <mxCell id="lB2y1da5tnhayKEPhziA-35" value="批量保存到数据库" style="rounded=1;whiteSpace=wrap;html=1;absoluteArcSize=1;arcSize=14;strokeWidth=2;" vertex="1" parent="1">
          <mxGeometry x="750" y="605" width="100" height="40" as="geometry" />
        </mxCell>
        <mxCell id="lB2y1da5tnhayKEPhziA-46" style="edgeStyle=orthogonalEdgeStyle;rounded=0;orthogonalLoop=1;jettySize=auto;html=1;entryX=0;entryY=0.5;entryDx=0;entryDy=0;" edge="1" parent="1" source="lB2y1da5tnhayKEPhziA-39" target="lB2y1da5tnhayKEPhziA-21">
          <mxGeometry relative="1" as="geometry" />
        </mxCell>
        <mxCell id="lB2y1da5tnhayKEPhziA-39" value="判断数据标准版本号和本地版本号一致&lt;br&gt;且元数据数据最后更新时间早于等于本地数据更新时间" style="strokeWidth=2;html=1;shape=mxgraph.flowchart.decision;whiteSpace=wrap;" vertex="1" parent="1">
          <mxGeometry x="145" y="560" width="150" height="130" as="geometry" />
        </mxCell>
      </root>
    </mxGraphModel>
  </diagram>
</mxfile>
